<svg id="svg" version="1.1" width="400" height="322.5806451612903" viewBox="0 0 400 322.5806451612903" xmlns="http://www.w3.org/2000/svg" xmlns:xlink="http://www.w3.org/1999/xlink" ><g id="svgg"><path id="path0" d="M0.000 161.290 L 0.000 322.581 74.355 322.581 L 148.710 322.581 148.710 321.464 C 148.710 320.850,148.528 320.198,148.306 320.015 C 148.085 319.832,147.165 319.116,146.263 318.424 C 140.341 313.881,144.053 307.667,154.839 304.066 C 167.999 299.672,184.131 299.182,256.657 300.973 C 263.730 301.148,273.435 301.437,278.226 301.616 C 283.016 301.795,291.363 302.084,296.774 302.259 C 312.391 302.764,333.690 303.712,351.452 304.693 C 368.726 305.647,380.199 306.784,381.774 307.697 C 383.905 308.931,382.957 311.241,380.045 311.909 C 376.415 312.742,350.057 315.059,332.097 316.124 C 329.081 316.303,325.815 316.523,324.839 316.614 C 323.863 316.705,320.306 316.923,316.935 317.098 C 308.558 317.534,295.764 318.305,287.419 318.878 C 283.605 319.139,278.089 319.433,275.161 319.530 C 270.029 319.701,265.806 320.366,265.806 321.004 C 265.806 321.161,265.516 321.290,265.161 321.290 C 264.806 321.290,264.516 321.435,264.516 321.613 C 264.516 321.790,264.290 321.935,264.013 321.935 C 263.737 321.935,263.600 322.081,263.710 322.258 C 263.842 322.471,286.939 322.581,331.955 322.581 L 400.000 322.581 400.000 161.290 L 400.000 0.000 200.000 0.000 L 0.000 0.000 0.000 161.290 M71.452 14.842 C 99.202 20.501,111.871 53.650,94.936 76.290 C 74.647 103.414,31.976 93.709,25.438 60.484 C 20.099 33.349,44.332 9.312,71.452 14.842 M205.208 26.775 C 216.091 27.559,233.185 32.549,236.210 35.824 L 237.097 36.784 237.097 49.381 C 237.097 65.157,237.336 64.665,231.071 61.754 C 213.231 53.467,198.412 53.526,187.928 61.927 C 174.866 72.392,172.027 88.725,180.343 105.564 C 184.306 113.590,189.479 120.794,205.648 140.806 C 233.484 175.259,241.587 188.861,244.806 206.537 C 254.738 261.084,215.298 297.646,162.903 282.463 C 156.254 280.537,149.395 277.915,148.387 276.915 L 147.581 276.115 147.499 262.332 C 147.391 244.023,146.488 245.131,157.189 250.447 C 167.755 255.696,172.882 257.202,180.161 257.193 C 199.319 257.171,212.529 244.011,213.125 224.355 C 213.612 208.268,210.649 202.856,182.221 167.903 C 157.383 137.364,152.604 130.433,147.426 117.435 C 142.811 105.853,141.403 89.037,143.855 74.798 C 148.569 47.424,169.401 28.246,196.129 26.675 C 199.874 26.455,200.938 26.467,205.208 26.775 M378.781 31.541 L 379.516 32.276 379.516 45.642 C 379.516 58.043,379.475 59.051,378.940 59.585 C 378.399 60.127,376.698 60.171,350.506 60.323 C 323.686 60.478,322.623 60.507,321.969 61.098 L 321.290 61.713 321.290 99.504 C 321.290 131.629,321.359 137.390,321.748 137.922 C 322.193 138.530,322.927 138.553,347.062 138.710 L 371.918 138.871 372.652 139.606 L 373.387 140.340 373.387 153.548 L 373.387 166.756 372.652 167.491 L 371.918 168.226 347.185 168.314 C 324.851 168.394,322.396 168.454,321.872 168.929 C 321.316 169.432,321.290 171.908,321.290 225.190 C 321.290 258.709,321.171 281.240,320.991 281.714 C 320.446 283.147,319.555 283.226,303.871 283.226 C 288.677 283.226,287.413 283.130,286.767 281.923 C 286.285 281.021,286.338 33.183,286.821 32.123 C 287.480 30.677,287.021 30.690,333.459 30.750 L 378.047 30.806 378.781 31.541 M67.772 109.355 C 100.717 113.130,114.274 153.429,90.293 176.296 C 67.854 197.693,30.631 185.217,25.360 154.531 C 21.026 129.304,42.476 106.456,67.772 109.355 M73.387 202.245 C 100.458 209.081,112.119 241.761,95.482 264.166 C 72.690 294.859,24.417 278.891,24.374 240.645 C 24.345 214.472,48.102 195.859,73.387 202.245 " stroke="none" fill="#ffffff" fill-rule="evenodd"></path><path id="path1" d="M191.613 28.566 C 159.037 33.083,139.683 63.038,144.803 101.013 C 147.435 120.530,152.386 129.035,183.133 166.863 C 209.075 198.778,212.820 204.850,214.434 217.601 C 217.839 244.514,196.290 263.911,170.323 257.308 C 166.063 256.225,162.720 254.858,155.874 251.398 C 152.629 249.759,149.763 248.498,149.503 248.598 C 148.692 248.909,148.810 275.262,149.626 276.078 C 150.324 276.776,156.595 279.133,162.654 280.976 C 203.023 293.251,237.207 273.956,244.106 235.000 C 245.166 229.013,244.876 213.842,243.572 207.097 C 240.061 188.934,232.436 176.130,204.672 141.774 C 185.490 118.039,180.190 110.207,176.646 100.358 C 170.413 83.039,176.945 65.274,192.419 57.462 C 202.595 52.325,217.679 53.502,231.685 60.525 C 235.931 62.654,235.808 62.995,235.802 49.134 C 235.796 35.611,236.175 36.824,231.282 34.646 C 219.200 29.266,203.696 26.890,191.613 28.566 M175.170 302.287 C 152.563 303.679,139.452 311.265,148.403 317.775 C 149.636 318.673,150.667 319.576,150.694 319.784 C 150.721 319.991,150.777 320.306,150.818 320.484 C 150.860 320.661,150.910 321.206,150.931 321.694 L 150.968 322.581 197.045 322.581 C 241.501 322.581,252.903 322.443,252.903 321.905 C 252.903 321.766,252.359 321.601,251.694 321.538 C 250.542 321.429,250.521 321.408,251.265 321.088 C 251.837 320.841,251.934 320.682,251.627 320.493 C 250.882 320.032,253.057 319.398,256.539 319.062 C 263.642 318.375,276.822 317.485,285.645 317.096 C 289.548 316.924,294.629 316.637,296.935 316.457 C 299.242 316.277,304.250 315.980,308.065 315.798 C 311.879 315.615,316.524 315.333,318.387 315.170 C 320.250 315.007,323.734 314.787,326.129 314.680 C 328.524 314.573,332.008 314.351,333.871 314.187 C 335.734 314.024,339.726 313.739,342.742 313.555 C 355.927 312.749,376.059 310.916,378.522 310.296 C 381.764 309.479,380.378 308.774,374.386 308.193 C 366.842 307.462,349.620 306.313,341.129 305.975 C 338.645 305.876,332.548 305.582,327.581 305.323 C 318.677 304.857,309.001 304.478,290.323 303.864 C 285.089 303.691,276.379 303.395,270.968 303.204 C 243.674 302.245,184.983 301.683,175.170 302.287 " stroke="none" fill="#119ee0" fill-rule="evenodd"></path><path id="path2" d="M60.323 202.281 C 31.415 204.537,15.555 237.735,31.753 262.079 C 47.948 286.419,84.752 284.185,97.891 258.065 C 111.450 231.107,90.452 199.929,60.323 202.281 " stroke="none" fill="#ee4f51" fill-rule="evenodd"></path><path id="path3" d="M288.567 33.298 C 287.798 34.395,287.798 279.799,288.567 280.896 L 289.069 281.613 303.871 281.613 L 318.673 281.613 319.175 280.896 C 319.625 280.254,319.677 274.355,319.677 224.319 C 319.677 169.804,319.692 168.440,320.294 167.697 L 320.910 166.935 345.923 166.774 C 365.851 166.646,371.021 166.528,371.355 166.193 C 371.968 165.581,371.967 141.516,371.355 140.903 C 371.021 140.569,365.856 140.450,346.032 140.316 C 332.336 140.223,321.098 140.114,321.061 140.074 C 321.024 140.033,320.697 139.682,320.335 139.294 C 319.377 138.266,319.287 61.199,320.242 60.020 C 321.239 58.789,322.713 58.725,350.413 58.717 C 375.845 58.710,377.453 58.676,377.671 58.145 C 378.140 57.003,377.944 33.696,377.461 33.114 C 377.053 32.623,373.555 32.581,333.043 32.581 L 289.069 32.581 288.567 33.298 M182.903 301.603 C 173.607 301.876,171.505 302.040,165.806 302.933 C 148.226 305.689,140.262 312.373,147.880 317.978 C 150.184 319.674,150.311 319.841,150.318 321.191 C 150.320 321.757,150.479 322.316,150.670 322.434 C 150.936 322.599,150.934 320.103,150.668 319.461 C 150.655 319.431,149.636 318.673,148.403 317.775 C 139.026 310.956,152.784 303.542,177.258 302.226 C 188.673 301.612,241.232 302.161,270.968 303.205 C 276.379 303.395,285.089 303.691,290.323 303.864 C 309.001 304.478,318.677 304.857,327.581 305.323 C 332.548 305.582,338.645 305.876,341.129 305.975 C 349.620 306.313,366.842 307.462,374.386 308.193 C 380.378 308.774,381.764 309.479,378.522 310.296 C 376.059 310.916,355.927 312.749,342.742 313.555 C 339.726 313.739,335.734 314.024,333.871 314.187 C 332.008 314.351,328.524 314.573,326.129 314.680 C 323.734 314.787,320.250 315.007,318.387 315.170 C 316.524 315.333,311.879 315.615,308.065 315.798 C 304.250 315.980,299.242 316.277,296.935 316.457 C 294.629 316.637,289.548 316.924,285.645 317.096 C 276.822 317.485,263.642 318.375,256.539 319.062 C 253.057 319.398,250.882 320.032,251.627 320.493 C 251.934 320.682,251.837 320.842,251.265 321.090 C 250.548 321.401,250.602 321.438,251.928 321.543 C 252.766 321.609,253.421 321.512,253.487 321.312 C 253.550 321.123,253.832 320.968,254.113 320.968 C 254.394 320.968,254.528 320.872,254.411 320.755 C 253.737 320.081,255.865 319.602,261.379 319.188 C 278.196 317.926,281.291 317.712,286.935 317.424 C 292.868 317.122,301.113 316.635,317.258 315.631 C 321.516 315.367,326.306 315.074,327.903 314.980 C 346.869 313.872,375.937 311.367,379.194 310.561 C 381.226 310.057,381.456 309.083,379.677 308.511 C 377.093 307.679,361.056 306.561,329.516 305.013 C 283.225 302.741,205.577 300.935,182.903 301.603 M247.823 322.495 C 248.665 322.562,250.044 322.562,250.887 322.495 C 251.730 322.429,251.040 322.374,249.355 322.374 C 247.669 322.374,246.980 322.429,247.823 322.495 " stroke="none" fill="#2ece71" fill-rule="evenodd"></path><path id="path4" d="M60.000 14.184 C 27.394 17.513,12.963 57.262,35.943 80.450 C 54.895 99.573,86.868 94.322,98.587 70.161 C 111.838 42.843,89.974 11.125,60.000 14.184 M70.558 15.361 C 97.249 20.205,110.561 51.191,95.729 73.947 C 79.577 98.725,42.650 96.617,29.444 70.161 C 15.394 42.015,39.606 9.744,70.558 15.361 M196.129 26.675 C 169.401 28.246,148.569 47.424,143.855 74.798 C 141.403 89.037,142.811 105.853,147.426 117.435 C 152.604 130.433,157.383 137.364,182.221 167.903 C 210.649 202.856,213.612 208.268,213.125 224.355 C 212.529 244.011,199.319 257.171,180.161 257.193 C 172.882 257.202,167.755 255.696,157.189 250.447 C 146.488 245.131,147.391 244.023,147.499 262.332 L 147.581 276.115 148.387 276.915 C 149.395 277.915,156.254 280.537,162.903 282.463 C 215.298 297.646,254.738 261.084,244.806 206.537 C 241.587 188.861,233.484 175.259,205.648 140.806 C 189.479 120.794,184.306 113.590,180.343 105.564 C 172.027 88.725,174.866 72.392,187.928 61.927 C 198.412 53.526,213.231 53.467,231.071 61.754 C 237.336 64.665,237.097 65.157,237.097 49.381 L 237.097 36.784 236.210 35.824 C 233.185 32.549,216.091 27.559,205.208 26.775 C 200.938 26.467,199.874 26.455,196.129 26.675 M207.581 28.394 C 217.323 29.299,234.100 34.550,235.390 37.098 C 235.913 38.133,235.989 60.024,235.473 60.989 C 235.000 61.872,234.168 61.770,231.685 60.525 C 217.679 53.502,202.595 52.325,192.419 57.462 C 176.945 65.274,170.413 83.039,176.646 100.358 C 180.190 110.207,185.490 118.039,204.672 141.774 C 232.436 176.130,240.061 188.934,243.572 207.097 C 244.876 213.842,245.166 229.013,244.106 235.000 C 237.207 273.956,203.023 293.251,162.654 280.976 C 156.595 279.133,150.324 276.776,149.626 276.078 C 148.810 275.262,148.692 248.909,149.503 248.598 C 149.763 248.498,152.629 249.759,155.874 251.398 C 162.720 254.858,166.063 256.225,170.323 257.308 C 196.290 263.911,217.839 244.514,214.434 217.601 C 212.820 204.850,209.075 198.778,183.133 166.863 C 152.386 129.035,147.435 120.530,144.803 101.013 C 138.750 56.119,166.050 24.539,207.581 28.394 M288.030 31.003 C 287.568 31.173,287.024 31.678,286.821 32.123 C 286.338 33.183,286.285 281.021,286.767 281.923 C 287.413 283.130,288.677 283.226,303.871 283.226 C 319.555 283.226,320.446 283.147,320.991 281.714 C 321.171 281.240,321.290 258.709,321.290 225.190 C 321.290 171.908,321.316 169.432,321.872 168.929 C 322.396 168.454,324.851 168.394,347.185 168.314 L 371.918 168.226 372.652 167.491 L 373.387 166.756 373.387 153.548 L 373.387 140.340 372.652 139.606 L 371.918 138.871 347.062 138.710 C 322.927 138.553,322.193 138.530,321.748 137.922 C 321.359 137.390,321.290 131.629,321.290 99.504 L 321.290 61.713 321.969 61.098 C 322.623 60.507,323.686 60.478,350.506 60.323 C 376.698 60.171,378.399 60.127,378.940 59.585 C 379.475 59.051,379.516 58.043,379.516 45.642 L 379.516 32.276 378.781 31.541 L 378.047 30.806 333.459 30.750 C 305.567 30.714,288.556 30.809,288.030 31.003 M377.461 33.114 C 377.944 33.696,378.140 57.003,377.671 58.145 C 377.453 58.676,375.845 58.710,350.413 58.717 C 322.713 58.725,321.239 58.789,320.242 60.020 C 319.287 61.199,319.377 138.266,320.335 139.294 C 320.697 139.682,321.024 140.033,321.061 140.074 C 321.098 140.114,332.336 140.223,346.032 140.316 C 365.856 140.450,371.021 140.569,371.355 140.903 C 371.967 141.516,371.968 165.581,371.355 166.193 C 371.021 166.528,365.851 166.646,345.923 166.774 L 320.910 166.935 320.294 167.697 C 319.692 168.440,319.677 169.804,319.677 224.319 C 319.677 274.355,319.625 280.254,319.175 280.896 L 318.673 281.613 303.871 281.613 L 289.069 281.613 288.567 280.896 C 287.798 279.799,287.798 34.395,288.567 33.298 L 289.069 32.581 333.043 32.581 C 373.555 32.581,377.053 32.623,377.461 33.114 M178.548 300.225 C 152.576 301.354,136.111 310.636,146.263 318.424 C 147.165 319.116,148.085 319.832,148.306 320.015 C 148.528 320.198,148.710 320.849,148.710 321.461 C 148.710 322.450,148.799 322.566,149.516 322.507 C 151.465 322.345,150.614 319.990,147.880 317.978 C 138.716 311.236,151.766 303.543,175.161 301.896 C 185.815 301.146,231.764 301.562,268.871 302.744 C 305.357 303.907,320.752 304.524,345.484 305.815 C 363.546 306.758,377.699 307.874,379.677 308.511 C 381.456 309.083,381.226 310.057,379.194 310.561 C 375.937 311.367,346.869 313.872,327.903 314.980 C 326.306 315.074,321.516 315.367,317.258 315.631 C 301.113 316.635,292.868 317.122,286.935 317.424 C 281.291 317.712,278.196 317.926,261.379 319.188 C 255.865 319.602,253.737 320.081,254.411 320.755 C 254.528 320.872,254.448 320.968,254.233 320.968 C 254.018 320.968,253.479 321.331,253.035 321.774 L 252.229 322.581 258.069 322.581 C 261.880 322.581,263.840 322.469,263.710 322.258 C 263.600 322.081,263.737 321.935,264.013 321.935 C 264.290 321.935,264.516 321.790,264.516 321.613 C 264.516 321.435,264.806 321.290,265.161 321.290 C 265.516 321.290,265.806 321.161,265.806 321.004 C 265.806 320.366,270.029 319.701,275.161 319.530 C 278.089 319.433,283.605 319.139,287.419 318.878 C 295.764 318.305,308.558 317.534,316.935 317.098 C 320.306 316.923,323.863 316.705,324.839 316.614 C 325.815 316.523,329.081 316.303,332.097 316.124 C 350.057 315.059,376.415 312.742,380.045 311.909 C 382.957 311.241,383.905 308.931,381.774 307.697 C 380.199 306.784,368.726 305.647,351.452 304.693 C 333.608 303.707,312.356 302.762,296.613 302.254 C 291.113 302.076,282.839 301.789,278.226 301.615 C 269.988 301.304,256.228 300.943,229.032 300.325 C 216.656 300.043,184.196 299.979,178.548 300.225 " stroke="none" fill="#6fdd9d" fill-rule="evenodd"></path><path id="path5" d="M59.941 14.849 C 33.116 17.859,17.486 46.206,29.444 70.161 C 45.355 102.036,92.227 96.663,100.889 61.972 C 107.141 36.930,85.465 11.985,59.941 14.849 " stroke="none" fill="#1df3d1" fill-rule="evenodd"></path><path id="path6" d="M59.280 109.370 C 30.611 112.710,15.281 145.504,31.194 169.454 C 47.651 194.222,84.625 192.281,98.128 165.940 C 112.272 138.349,89.920 105.801,59.280 109.370 M58.406 201.306 C 27.994 205.125,13.653 241.607,33.076 265.740 C 50.765 287.718,85.860 284.034,98.773 258.843 C 113.335 230.439,90.103 197.326,58.406 201.306 M71.452 202.954 C 96.002 207.774,109.273 235.435,97.891 258.065 C 84.752 284.185,47.948 286.419,31.753 262.079 C 12.683 233.418,37.599 196.308,71.452 202.954 " stroke="none" fill="#ffc000" fill-rule="evenodd"></path></g></svg>